<svg width="171" height="172" viewBox="0 0 171 172" fill="none" xmlns="http://www.w3.org/2000/svg">
<path d="M97.1668 93.5461L62.3317 113.533L38.347 98.6857C33.7735 96.1859 30.1924 92.1972 28.1981 87.3817C26.2039 82.5662 25.9164 77.2135 27.3835 72.2121C28.8506 67.2108 31.9839 62.8615 36.2634 59.8863C40.543 56.9111 45.7113 55.4889 50.9104 55.8558M85.1744 100.399L50.9104 80.4116V51.8583C50.5432 46.5542 52.0376 41.2882 55.1362 36.9677C58.2348 32.6472 62.7435 29.5429 67.8852 28.1899C73.0269 26.8368 78.4796 27.3197 83.3035 29.5553C88.1274 31.7909 92.0203 35.6392 94.3114 40.437M73.182 93.5461V53.0004L98.3089 38.1527C102.835 35.3721 108.188 34.2558 113.448 34.9957C118.708 35.7356 123.546 38.2854 127.129 42.2066C130.712 46.1278 132.817 51.1752 133.081 56.4804C133.345 61.7856 131.752 67.017 128.575 71.2745M73.182 78.6984L108.017 58.7111L132.002 73.5588C136.575 76.0586 140.156 80.0473 142.151 84.8628C144.145 89.6783 144.432 95.031 142.965 100.032C141.498 105.034 138.365 109.383 134.085 112.358C129.806 115.333 124.638 116.756 119.438 116.389M85.1744 71.8456L119.438 91.8329V120.386C119.806 125.69 118.311 130.956 115.213 135.277C112.114 139.597 107.605 142.702 102.464 144.055C97.3219 145.408 91.8692 144.925 87.0453 142.689C82.2214 140.454 78.3284 136.605 76.0373 131.808M97.1668 78.6984V119.244L72.0399 134.092C67.514 136.872 62.1606 137.989 56.9006 137.249C51.6406 136.509 46.8029 133.959 43.2197 130.038C39.6366 126.117 37.532 121.069 37.268 115.764C37.004 110.459 38.5972 105.227 41.7734 100.97" stroke="white" stroke-width="11.4213" stroke-linecap="round" stroke-linejoin="round"/>
</svg>
