<svg width="27" height="23" viewBox="0 0 27 23" fill="none" xmlns="http://www.w3.org/2000/svg">
<path d="M23.119 5.72912C22.9498 5.88168 22.7311 5.96797 22.5034 5.97212H0.869554C0.101402 5.97212 -0.286049 5.09462 0.245852 4.58162L3.79906 1.15531C3.96418 0.995824 4.18377 0.905093 4.41331 0.901508H26.1322C26.9071 0.901508 27.2864 1.78711 26.7478 2.30281L23.119 5.72912Z" fill="white"/>
<path d="M23.119 9.20837C22.9488 9.05826 22.7303 8.9744 22.5034 8.97212H0.869554C0.101402 8.97212 -0.286049 9.84287 0.245852 10.3559L3.79906 13.7916C3.96791 13.9439 4.186 14.0302 4.41331 14.0346H26.1322C26.9071 14.0346 27.2864 13.1571 26.7478 12.6441L23.119 9.20837Z" fill="white"/>
<path d="M23.119 21.8622C22.9488 22.0123 22.7303 22.0962 22.5034 22.0985H0.869554C0.101402 22.0985 -0.286049 21.2277 0.245852 20.7134L3.79906 17.279C3.9649 17.1218 4.1848 17.0343 4.41331 17.0346H26.1322C26.9071 17.0346 27.2864 17.9121 26.7478 18.4251L23.119 21.8622Z" fill="white"/>
</svg>
