<svg width="378" height="442" viewBox="0 0 378 442" fill="none" xmlns="http://www.w3.org/2000/svg">
<g clip-path="url(#clip0_160_548)">
<rect width="378" height="442" rx="8.76782" fill="#1A1B23"/>
<g filter="url(#filter0_f_160_548)">
<path d="M164.338 63.2202C163.262 64.1902 161.872 64.7389 160.424 64.7652H22.876C17.9921 64.7652 15.5287 59.1861 18.9105 55.9244L41.5019 34.1399C42.5517 33.1259 43.9479 32.549 45.4073 32.5262H183.496C188.423 32.5262 190.835 38.1569 187.41 41.4357L164.338 63.2202Z" fill="url(#paint0_linear_160_548)"/>
<path d="M164.338 170.572C163.256 171.527 161.867 172.06 160.424 172.074H22.876C17.9921 172.074 15.5287 166.538 18.9105 163.268L41.5019 141.432C42.5563 140.432 43.9544 139.876 45.4073 139.878H183.496C188.423 139.878 190.835 145.457 187.41 148.719L164.338 170.572Z" fill="url(#paint1_linear_160_548)"/>
<path d="M164.338 87.7341C163.256 86.7798 161.867 86.2466 160.424 86.2321H22.876C17.9921 86.2321 15.5287 91.7683 18.9105 95.03L41.5019 116.875C42.5754 117.843 43.962 118.391 45.4073 118.42H183.496C188.423 118.42 190.835 112.84 187.41 109.579L164.338 87.7341Z" fill="url(#paint2_linear_160_548)"/>
</g>
<path d="M32 30.7831C32 26.4846 35.4846 23 39.7831 23H349.217C353.515 23 357 26.4846 357 30.7831V182H32V30.7831Z" fill="#656565" fill-opacity="0.39"/>
<path d="M349.801 111.482L338.759 117.818L331.156 113.112C329.706 112.319 328.571 111.055 327.939 109.528C327.307 108.002 327.215 106.305 327.68 104.72C328.146 103.134 329.139 101.756 330.495 100.812C331.852 99.8693 333.49 99.4185 335.138 99.5348M346 113.655L335.138 107.319V98.2676C335.022 96.5862 335.496 94.9169 336.478 93.5473C337.46 92.1778 338.889 91.1937 340.519 90.7648C342.149 90.3359 343.878 90.4889 345.407 91.1976C346.936 91.9063 348.17 93.1262 348.896 94.6471M342.198 111.482V98.6296L350.164 93.923C351.598 93.0415 353.295 92.6877 354.963 92.9222C356.63 93.1567 358.164 93.965 359.299 95.208C360.435 96.4511 361.102 98.0511 361.186 99.7328C361.27 101.415 360.765 103.073 359.758 104.422M342.198 106.776L353.241 100.44L360.844 105.147C362.294 105.939 363.429 107.203 364.061 108.73C364.693 110.256 364.784 111.953 364.319 113.539C363.854 115.124 362.861 116.503 361.505 117.446C360.148 118.389 358.51 118.84 356.861 118.723M346 104.603L356.861 110.939V119.991C356.978 121.672 356.504 123.341 355.522 124.711C354.54 126.08 353.11 127.065 351.481 127.493C349.851 127.922 348.122 127.769 346.593 127.061C345.064 126.352 343.83 125.132 343.104 123.611M349.801 106.776V119.629L341.836 124.335C340.402 125.217 338.705 125.571 337.037 125.336C335.37 125.102 333.836 124.293 332.7 123.05C331.565 121.807 330.897 120.207 330.814 118.525C330.73 116.844 331.235 115.185 332.242 113.836" stroke="white" stroke-width="3.62051" stroke-linecap="round" stroke-linejoin="round"/>
</g>
<defs>
<filter id="filter0_f_160_548" x="-75.4505" y="-75.4505" width="356.901" height="355.502" filterUnits="userSpaceOnUse" color-interpolation-filters="sRGB">
<feFlood flood-opacity="0" result="BackgroundImageFix"/>
<feBlend mode="normal" in="SourceGraphic" in2="BackgroundImageFix" result="shape"/>
<feGaussianBlur stdDeviation="37.7253" result="effect1_foregroundBlur_160_548"/>
</filter>
<linearGradient id="paint0_linear_160_548" x1="17.357" y1="512.781" x2="193.393" y2="511.167" gradientUnits="userSpaceOnUse">
<stop stop-color="#599DB0"/>
<stop offset="1" stop-color="#47F8C3"/>
</linearGradient>
<linearGradient id="paint1_linear_160_548" x1="17.357" y1="75.2886" x2="192.268" y2="73.9496" gradientUnits="userSpaceOnUse">
<stop stop-color="#C44FE2"/>
<stop offset="1" stop-color="#73B0D0"/>
</linearGradient>
<linearGradient id="paint2_linear_160_548" x1="27.2364" y1="102.326" x2="182.363" y2="102.326" gradientUnits="userSpaceOnUse">
<stop stop-color="#778CBF"/>
<stop offset="1" stop-color="#5DCDC9"/>
</linearGradient>
<clipPath id="clip0_160_548">
<rect width="378" height="442" rx="8.76782" fill="white"/>
</clipPath>
</defs>
</svg>
