<svg width="86" height="86" viewBox="0 0 86 86" fill="none" xmlns="http://www.w3.org/2000/svg">
<rect x="0.373913" y="0.373913" width="85.2522" height="85.2522" rx="42.6261" stroke="white" stroke-width="0.747826"/>
<path d="M57.5002 33.7616C57.2459 33.9909 56.9173 34.1206 56.575 34.1268H24.0588C22.9042 34.1268 22.3219 32.8079 23.1213 32.0368L28.4619 26.887C28.7101 26.6473 29.0401 26.5109 29.3851 26.5055H62.0292C63.1939 26.5055 63.764 27.8366 62.9544 28.6117L57.5002 33.7616Z" fill="url(#paint0_linear_14_2005)"/>
<path d="M57.5002 59.1394C57.2444 59.365 56.916 59.4911 56.5749 59.4945H24.0587C22.9042 59.4945 22.3218 58.1857 23.1213 57.4126L28.4619 52.2506C28.7111 52.0143 29.0416 51.8829 29.3851 51.8834H62.0291C63.1938 51.8834 63.764 53.2023 62.9544 53.9733L57.5002 59.1394Z" fill="url(#paint1_linear_14_2005)"/>
<path d="M57.5002 39.5566C57.2444 39.331 56.916 39.2049 56.5749 39.2015H24.0587C22.9042 39.2015 22.3218 40.5103 23.1213 41.2813L28.4619 46.4454C28.7157 46.6742 29.0434 46.8039 29.3851 46.8106H62.0291C63.1938 46.8106 63.764 45.4917 62.9544 44.7206L57.5002 39.5566Z" fill="url(#paint2_linear_14_2005)"/>
<defs>
<linearGradient id="paint0_linear_14_2005" x1="22.7541" y1="140.037" x2="64.3687" y2="139.656" gradientUnits="userSpaceOnUse">
<stop stop-color="#599DB0"/>
<stop offset="1" stop-color="#47F8C3"/>
</linearGradient>
<linearGradient id="paint1_linear_14_2005" x1="22.754" y1="36.6145" x2="64.1029" y2="36.2979" gradientUnits="userSpaceOnUse">
<stop stop-color="#C44FE2"/>
<stop offset="1" stop-color="#73B0D0"/>
</linearGradient>
<linearGradient id="paint2_linear_14_2005" x1="25.0895" y1="43.0061" x2="61.7613" y2="43.0061" gradientUnits="userSpaceOnUse">
<stop stop-color="#778CBF"/>
<stop offset="1" stop-color="#5DCDC9"/>
</linearGradient>
</defs>
</svg>
