<svg width="21" height="25" viewBox="0 0 21 25" fill="none" xmlns="http://www.w3.org/2000/svg">
<path d="M5.44292 2.87611C6.25684 3.15077 7.03091 3.53179 7.745 4.00927C8.75414 3.75098 9.79191 3.62139 10.8336 3.62361C11.9093 3.62361 12.9472 3.75794 13.92 4.00819C14.6338 3.53117 15.4075 3.15051 16.221 2.87611C16.9761 2.61936 18.0518 2.20336 18.691 2.91077C19.1243 3.39177 19.2327 4.19777 19.3096 4.81311C19.3962 5.49994 19.4168 6.39477 19.1893 7.28311C20.0592 8.40652 20.5836 9.74661 20.5836 11.2069C20.5836 13.4191 19.3854 15.3399 17.612 16.6702C16.7581 17.3017 15.8116 17.7972 14.8062 18.1392C15.038 18.67 15.1669 19.2572 15.1669 19.8736V23.1236C15.1669 23.4109 15.0528 23.6865 14.8496 23.8896C14.6464 24.0928 14.3709 24.2069 14.0836 24.2069H7.58358C7.29626 24.2069 7.02071 24.0928 6.81755 23.8896C6.61439 23.6865 6.50025 23.4109 6.50025 23.1236V22.05C5.46567 22.1768 4.59792 22.0641 3.86017 21.751C3.08883 21.4239 2.5515 20.9169 2.14742 20.4315C1.76392 19.9722 1.34575 18.9365 0.741248 18.735C0.606239 18.6901 0.481405 18.619 0.373877 18.5258C0.266348 18.4326 0.178229 18.3191 0.114551 18.1918C-0.0140522 17.9348 -0.0352939 17.6373 0.0554985 17.3646C0.146291 17.0919 0.34168 16.8665 0.598683 16.7379C0.855686 16.6093 1.15325 16.5881 1.42592 16.6789C2.14742 16.9194 2.61758 17.4394 2.93933 17.8575C3.45933 18.5292 3.88183 19.4067 4.70517 19.7566C5.04425 19.9007 5.5415 19.9949 6.31933 19.8888L6.50025 19.8519C6.50274 19.2624 6.6255 18.6796 6.861 18.1392C5.85553 17.7972 4.90905 17.3017 4.05517 16.6702C2.28175 15.3399 1.08358 13.4202 1.08358 11.2069C1.08358 9.74877 1.60683 8.40977 2.47458 7.28744C2.24708 6.39911 2.26658 5.50211 2.35325 4.81419L2.35867 4.77302C2.43775 4.14252 2.52983 3.40044 2.97183 2.91077C3.611 2.20336 4.68783 2.62044 5.44183 2.87719L5.44292 2.87611Z" fill="white"/>
</svg>
