<svg width="54" height="54" viewBox="0 0 54 54" fill="none" xmlns="http://www.w3.org/2000/svg">
<path d="M5.12695 26.6028C8.07916 26.281 10.6083 25.9281 12.777 25.4723C16.1001 24.7738 18.6239 23.8249 20.5464 22.3372L20.5467 22.337C22.8617 20.5426 24.2643 18.0429 25.2331 14.4698C25.9225 11.9271 26.3991 8.81405 26.8243 4.98536C27.2054 8.38742 27.6249 11.2216 28.1958 13.5892C29.0246 17.0264 30.1842 19.5338 32.0558 21.3875C33.9266 23.2405 36.466 24.3978 39.9396 25.2231C42.3036 25.7848 45.1246 26.198 48.4975 26.566C45.5418 26.8881 43.0139 27.242 40.846 27.7007C37.5218 28.4042 34.9989 29.3629 33.0581 30.8689C30.7609 32.6453 29.3684 35.1464 28.4048 38.7179C27.7208 41.2534 27.2459 44.3562 26.8219 48.1636C26.3768 44.1629 25.8744 40.9431 25.1308 38.3413C24.0965 34.722 22.5815 32.2465 20.0659 30.5121C18.1289 29.1673 15.6225 28.2974 12.3704 27.6475C10.2945 27.2326 7.89728 26.9043 5.12695 26.6028Z" fill="white" stroke="black"/>
</svg>
